PathFileType	4	(X/Y/Z)	Patient4_TMGait_0pt5_01_left_28.trc.trc
DataRate	CameraRate	NumFrames	NumMarkers	Units	OrigDataRate	OrigDataStartFrame	OrigNumFrames
76.086956521739	76.086956521739	4	33	mm	76.086956521739	36	       141
Frame#	Time	L.ASIS			Sacral			L.Shoulder			Chest			R.Shoulder			Neck			R.ASIS			R.Thigh.Superior			R.Thigh.Lateral			R.Thigh.Inferior			R.Patella			L.Thigh.Superior			L.Thigh.Lateral			L.Thigh.Inferior			L.Patella			L.Shank.Superior			L.Shank.Lateral			L.Shank.Inferior			R.Shank.Superior			R.Shank.Lateral			R.Shank.Inferior			R.Heel			R.Midfoot.Superior			R.Midfoot.Lateral			R.Toe			L.Heel			L.Midfoot.Lateral			L.Midfoot.Superior			L.Toe			L.Elbow			L.Wrist			R.Elbow			R.Wrist			
		X1	Y1	Z1	X2	Y2	Z2	X3	Y3	Z3	X4	Y4	Z4	X5	Y5	Z5	X6	Y6	Z6	X7	Y7	Z7	X8	Y8	Z8	X9	Y9	Z9	X10	Y10	Z10	X11	Y11	Z11	X12	Y12	Z12	X13	Y13	Z13	X14	Y14	Z14	X15	Y15	Z15	X16	Y16	Z16	X17	Y17	Z17	X18	Y18	Z18	X19	Y19	Z19	X20	Y20	Z20	X21	Y21	Z21	X22	Y22	Z22	X23	Y23	Z23	X24	Y24	Z24	X25	Y25	Z25	X26	Y26	Z26	X27	Y27	Z27	X28	Y28	Z28	X29	Y29	Z29	X30	Y30	Z30	X31	Y31	Z31	X32	Y32	Z32	X33	Y33	Z33	

36	37.860000000000	883.224659257784	960.983459652495	314.795710187741	693.517392383162	1007.557767164874	500.293660763156	832.263398405472	1430.594170722264	295.553085734216	962.610298681358	1362.588510790686	436.831532497500	909.099108997082	1440.283508741646	622.209145267361	860.445239439585	1493.734836326591	441.672614505651	931.028094858892	935.129634589834	585.704501423446	932.233102883623	723.604289039594	559.266247826595	835.637993544658	627.519664658951	626.151634975761	895.257114024454	561.126669525182	543.894920800555	875.639497378526	464.102969221483	553.378458543074	956.133479416982	766.123415006619	348.659210718286	885.446865149835	639.855164517983	288.134801100754	981.417568389777	571.713311463692	348.360645618857	992.062292520401	498.884860761176	355.992418478154	966.760806359555	425.546200371514	347.184360428716	882.487736322858	310.542316606090	290.611149527605	934.966023904276	198.338015238395	358.433775565083	816.751635765443	389.412841830823	562.178119278223	718.114800458981	316.744069500366	630.417893788685	722.189172777159	212.327258884134	569.406408567970	540.108401076198	84.716691475335	551.414616994775	721.004830462587	103.042792857017	577.323701135099	624.325422186355	56.379842197496	619.274072919466	827.810885035394	36.500616520391	595.880000773515	808.141220116777	40.572108748097	390.337354495201	884.719196657775	37.494166977573	312.676372488973	967.672836660740	97.620071890122	341.576485046426	1096.041106835640	42.784505401644	316.485801784059	739.677506609086	1084.487651411606	193.614237976283	815.799476148301	834.830771763248	160.369382887995	964.203222264627	1094.181710889180	728.090519971869	1166.736158698293	987.521594090363	613.414524068962	
37	37.873142857143	883.493241963033	961.927473331662	311.735972183542	693.674031049136	1008.095002452131	497.270573191961	832.663655171141	1431.891268976582	293.834420837867	962.923786017775	1363.468773948904	435.036421750977	909.155478982312	1440.662556035834	620.560935419516	860.743908005621	1494.546368145216	440.119883849319	931.289186834036	935.604838477309	582.537423383633	934.371127122039	724.476293077888	556.793886556330	838.895649633506	627.728270446513	623.953501546683	899.880076074388	561.369948276439	542.245587490779	880.873146848793	462.984765066624	553.067198640077	955.765622833255	765.996008954715	345.027554489431	883.272455670348	639.752904092620	286.237451106370	979.043031587809	571.092548940404	345.907350334742	989.240238875449	498.430905955304	354.434004010087	963.414177057663	425.094873771634	346.022283788882	878.421884886741	310.549986715073	289.712031582337	929.750027832153	198.217502314026	358.100710665026	819.707826204591	389.313396152651	561.797277465446	718.851454461766	319.479252228142	629.701908427384	721.128903403531	214.393579972099	569.834852091910	536.010293528707	91.358340582538	551.961226782710	717.438336801923	103.841279444251	578.021256431574	619.211191761924	59.779550765189	619.473523369276	821.558333891562	36.439345751712	595.777293520726	801.688691347041	40.869584916218	390.311050944846	878.236950692795	37.630073180870	312.679542969847	961.334605721727	97.631778805748	341.495963386716	1089.612288639838	42.373107374418	316.350203716618	740.455930695241	1086.149388217374	190.357146064596	820.835407407503	837.733546987915	156.925663790277	958.006212799686	1093.624409637067	727.218532857712	1156.512240799876	973.572823697502	617.981897884006	
38	37.886285714286	883.729234126720	962.781989773906	308.659646419296	693.705720756415	1008.565609158846	494.195297283643	833.013624869022	1433.174067412777	292.166205216075	963.132267486856	1364.334249650583	433.331296274580	908.987719073459	1440.907402442248	619.017115716482	860.894725768461	1495.297724160435	438.657365076719	931.482649059477	936.038702268657	579.289287865636	936.917883230856	725.380407634704	554.208547422494	842.858969618598	627.807118595100	621.696229873936	905.287043225990	561.617500397658	540.474035506293	887.017784085504	461.848768400517	552.670516813450	955.229750572053	765.653651062060	341.369119620019	880.973070624353	639.597980378821	284.224889793300	976.423272780003	570.396893657900	343.495091444264	986.113447677426	497.891581372179	352.773381573693	959.779237556732	424.555012713985	344.730804981423	874.051081299953	310.430122729615	288.770236236411	924.365638996423	198.017280283732	357.686579702083	823.604975198755	389.215824849633	561.409267963121	720.525728321707	322.408340212742	628.957719823487	720.810736829408	216.699225227197	570.290287221776	532.588983049898	98.919041165498	552.605137951873	714.274599490481	104.711561388774	578.742253435035	614.474806970180	63.793134649307	619.724594151876	815.279115280851	36.326188980044	595.673291649709	795.125709869530	41.086417513318	390.258877491401	871.658382304296	37.688937084819	312.654055164327	954.887700198003	97.585213420172	341.405291960169	1083.092196303714	41.958250038904	316.255248785931	741.061623653710	1087.883401576007	187.038567949134	825.911348578906	840.856120354695	153.401558878512	951.505833788814	1093.040389973436	726.333472550327	1145.332172994812	959.443539609036	623.598142113081	
39	37.899428571429	883.922616630178	963.530452343387	305.584107970720	693.591733567339	1008.964950202949	491.090781389034	833.323471146874	1434.415880549560	290.546751248585	963.239353679762	1365.148158767067	431.715540573232	908.610350056456	1440.999072810796	617.571802638882	860.906305459095	1495.965458458384	437.280152074144	931.580187292826	936.434648009118	575.990513845142	939.869792754762	726.333536500572	551.495254689434	847.589995385321	627.762045953465	619.387740857338	911.507504898265	561.903681906769	538.547798584774	894.135028895400	460.739951150221	552.133585907742	954.523610983291	765.127110822412	337.807970805694	878.609746642530	639.409087083949	282.115500395523	973.575454096850	569.635558427768	341.194799681464	982.692911652393	497.264037481680	351.071931939332	955.878691558662	423.927306531533	343.348696558933	869.424439883018	310.186801639734	287.783912941880	918.830543719970	197.736184421603	357.206654276385	828.516064126383	389.148636562342	560.967012252525	723.247996318712	325.564630066879	628.179763534987	721.324146897676	219.303242662632	570.747456068088	530.006672181636	107.561137329922	553.349760543952	711.561409428792	105.735569093988	579.466422376285	610.222485395784	68.588175081479	620.040856640039	808.960057611753	36.102798011822	595.581214075465	788.484893380192	41.205881274281	390.173277557496	865.014396414036	37.671414142111	312.589859911441	948.350223723827	97.495443031071	341.300746323505	1076.508287906302	41.580378622001	316.189053903311	741.531964175816	1089.663166335126	183.648192051623	831.004628578467	844.167254328905	149.807834138323	944.682552130535	1092.412169490361	725.445636587558	1133.139128461059	945.343005707543	630.209584659004	
